<svg xmlns="http://www.w3.org/2000/svg" viewBox="0 0 512 512" width="512" height="512">
  <!-- Background -->
  <rect width="512" height="512" rx="96" fill="#EA580C"/>

  <!-- Book spine (vertical bar) -->
  <rect x="228" y="100" width="36" height="312" rx="8" fill="rgba(0,0,0,0.2)"/>

  <!-- Left page (back cover area) -->
  <rect x="108" y="100" width="136" height="312" rx="14" fill="#FFFFFF"/>

  <!-- Right page -->
  <rect x="244" y="100" width="154" height="312" rx="14" fill="#FFFFFF"/>

  <!-- Left page lines -->
  <rect x="128" y="160" width="96" height="10" rx="5" fill="#EA580C" opacity="0.5"/>
  <rect x="128" y="188" width="96" height="10" rx="5" fill="#EA580C" opacity="0.4"/>
  <rect x="128" y="216" width="96" height="10" rx="5" fill="#EA580C" opacity="0.3"/>
  <rect x="128" y="244" width="72" height="10" rx="5" fill="#EA580C" opacity="0.3"/>

  <!-- Right page lines -->
  <rect x="264" y="160" width="114" height="10" rx="5" fill="#EA580C" opacity="0.5"/>
  <rect x="264" y="188" width="114" height="10" rx="5" fill="#EA580C" opacity="0.4"/>
  <rect x="264" y="216" width="114" height="10" rx="5" fill="#EA580C" opacity="0.3"/>
  <rect x="264" y="244" width="80" height="10" rx="5" fill="#EA580C" opacity="0.3"/>

  <!-- Bookmark ribbon -->
  <path d="M350 100 L350 200 L325 180 L300 200 L300 100 Z" fill="#F59E0B"/>
</svg>
